<?xml version="1.0" standalone="no"?>
<!DOCTYPE svg PUBLIC "-//W3C//DTD SVG 20010904//EN"
 "http://www.w3.org/TR/2001/REC-SVG-20010904/DTD/svg10.dtd">
<svg version="1.0" xmlns="http://www.w3.org/2000/svg"
 width="500.000000pt" height="500.000000pt" viewBox="0 0 500.000000 500.000000"
 preserveAspectRatio="xMidYMid meet">

<g transform="translate(0.000000,500.000000) scale(0.100000,-0.100000)"
fill="#000000" stroke="none">
<path d="M1600 4310 c0 -5 5 -10 10 -10 6 0 10 -7 10 -16 0 -8 -4 -13 -9 -10
-5 3 -12 -1 -15 -10 -10 -26 -7 -44 9 -44 11 0 12 -5 5 -24 -5 -13 -6 -26 -4
-29 8 -8 12 -37 13 -85 1 -26 5 -41 11 -37 6 3 10 1 10 -4 0 -6 -4 -11 -8 -11
-4 0 -8 -8 -9 -17 -3 -69 -13 -338 -18 -488 -4 -99 -8 -185 -10 -192 -3 -9
-49 -12 -172 -11 -204 1 -272 -5 -284 -23 -5 -8 -9 -9 -9 -3 0 8 -47 12 -147
14 -82 1 -197 3 -256 4 -94 2 -109 0 -117 -15 -7 -12 -6 -19 3 -22 8 -4 9 -8
2 -14 -18 -14 -11 -67 11 -91 19 -21 25 -23 56 -14 20 5 41 6 47 2 18 -11 142
-10 136 1 -4 5 3 9 14 9 12 0 21 -4 21 -9 0 -5 20 -9 45 -9 36 -1 45 2 46 16
0 13 2 12 9 -4 7 -17 17 -22 46 -22 21 0 44 7 52 15 8 8 18 11 21 6 7 -10 101
-15 121 -7 8 4 28 6 43 5 16 -2 37 5 47 14 19 17 46 12 35 -6 -4 -5 -1 -9 4
-9 6 0 11 4 11 10 0 6 9 6 26 0 15 -6 54 -11 88 -11 78 -1 104 -11 104 -41 0
-13 0 -34 1 -48 1 -20 2 -192 2 -375 0 -11 -3 -34 -6 -51 -5 -21 -2 -35 8 -45
11 -12 12 -17 1 -27 -16 -15 -11 -162 6 -172 8 -5 8 -9 -2 -12 -11 -5 -13 -68
-11 -367 3 -363 3 -367 -29 -362 -4 0 -31 -4 -60 -9 -29 -6 -82 -13 -118 -15
-36 -2 -90 -7 -120 -11 -30 -4 -89 -6 -130 -5 -41 1 -84 1 -95 1 -11 -1 -49
-3 -85 -5 -36 -1 -93 -8 -128 -14 -35 -7 -88 -9 -121 -5 -44 5 -65 2 -89 -10
-31 -16 -45 -33 -19 -23 14 5 17 -26 4 -39 -12 -12 -8 -44 5 -42 7 2 12 -3 13
-10 0 -7 7 -17 15 -22 21 -14 90 -12 90 1 0 8 5 7 15 -1 12 -10 46 -11 143 -6
70 4 132 8 137 8 159 -3 250 -1 290 6 28 6 75 10 105 11 30 1 79 5 108 10 66
10 80 0 83 -59 1 -25 5 -49 9 -55 9 -14 11 -67 2 -62 -4 3 -7 -10 -7 -29 0
-19 3 -34 6 -34 3 0 5 -31 3 -70 -2 -38 1 -70 6 -70 5 0 6 -12 3 -28 -10 -49
-1 -221 13 -243 5 -8 3 -10 -5 -4 -10 5 -12 -12 -10 -76 3 -115 18 -209 35
-216 8 -3 14 -12 14 -20 0 -11 8 -9 33 8 17 13 34 27 35 31 2 4 12 8 23 8 10
0 19 5 19 10 0 6 -4 10 -8 10 -4 0 -9 11 -10 26 -1 17 2 23 10 18 8 -5 9 3 3
32 -4 21 -8 70 -10 107 -1 46 -6 72 -16 78 -11 7 -12 11 -1 17 20 13 25 72 6
72 -14 0 -14 2 0 16 19 19 22 84 4 84 -10 0 -10 2 -1 8 16 10 16 152 0 152 -8
0 -7 3 1 9 11 6 13 35 9 132 -7 182 -12 174 108 175 88 1 147 4 325 18 25 2
60 4 78 5 23 1 31 5 26 13 -5 8 -2 9 12 3 10 -4 26 -8 34 -8 21 0 197 12 250
18 54 6 282 6 325 1 17 -2 37 2 46 10 14 13 18 13 29 -1 18 -22 39 -19 50 8 7
17 9 18 9 5 1 -20 -2 -19 131 -21 l95 -2 3 -47 c2 -27 7 -48 13 -48 5 0 9 -9
9 -21 0 -11 -4 -17 -10 -14 -12 7 -12 -5 -10 -145 1 -58 1 -130 0 -160 -5
-177 -5 -218 1 -241 4 -14 2 -33 -3 -42 -5 -10 -6 -23 -2 -29 9 -14 7 -152 -2
-181 -7 -21 23 -70 36 -62 6 4 10 2 10 -4 0 -6 7 -8 16 -4 9 3 20 0 26 -8 7
-11 11 -11 15 -1 2 7 11 19 19 26 16 17 19 46 4 46 -5 0 -10 5 -10 11 0 5 5 7
10 4 6 -3 10 3 10 14 0 12 -6 21 -12 21 -10 0 -10 2 -1 8 14 9 24 70 12 78 -5
3 -9 10 -9 15 0 6 5 7 10 4 12 -8 12 17 1 68 -5 20 -6 37 -2 37 9 0 7 143 -2
158 -5 7 -4 19 2 26 12 14 10 174 -2 193 -4 6 -2 25 4 43 9 26 9 34 -2 41 -8
5 -9 9 -4 9 6 0 11 8 12 18 0 9 4 46 8 82 4 36 8 76 8 90 2 23 7 26 62 33 33
4 70 13 82 19 17 8 26 8 37 -1 16 -13 154 -12 162 1 3 4 12 5 22 2 12 -4 14
-3 4 3 -10 8 -10 12 3 23 13 10 15 9 15 -6 0 -17 10 -19 91 -22 62 -1 97 2
107 11 13 9 14 9 8 0 -10 -18 9 -16 24 2 9 11 9 15 1 15 -7 0 -10 4 -6 10 7
11 36 1 51 -18 9 -13 12 -13 17 2 4 9 14 16 23 16 10 0 14 -5 10 -15 -4 -12 6
-15 57 -15 36 1 72 7 87 16 14 8 18 14 10 13 -30 -3 -53 1 -47 8 7 7 -11 33
-23 33 -4 0 -5 -12 -2 -27 4 -22 2 -25 -12 -20 -10 4 -22 7 -27 7 -5 0 -9 5
-9 10 0 6 7 10 15 10 8 0 15 -5 15 -12 0 -6 2 -9 5 -6 3 3 3 12 0 20 -4 10
-21 14 -54 15 -26 0 -54 4 -61 8 -9 6 -11 4 -5 -5 6 -10 4 -11 -11 -5 -29 12
-125 22 -274 29 -74 4 -142 9 -150 11 -39 10 -120 14 -120 5 0 -5 -7 -7 -16
-3 -9 3 -20 0 -25 -8 -6 -10 -9 -10 -9 -1 0 7 -13 12 -29 12 -43 0 -41 -11
-42 180 -1 52 -3 115 -5 140 -7 93 -7 186 0 220 5 26 4 31 -3 20 -14 -19 -14
-4 -1 21 8 13 7 19 0 19 -18 0 -42 28 -30 35 5 3 10 1 10 -4 0 -6 4 -11 9 -11
4 0 8 29 8 64 0 35 3 68 7 74 3 5 2 20 -2 32 -5 12 -5 45 -2 73 4 29 7 107 6
175 -1 117 -2 124 -25 141 -20 15 -22 21 -12 40 8 14 9 37 4 69 -4 26 -8 83
-8 127 l0 80 38 -3 c39 -3 49 12 25 36 -7 7 -9 12 -4 12 10 0 39 -30 29 -30
-4 0 -1 -5 8 -10 9 -5 42 -5 85 1 38 5 93 9 122 8 29 -2 57 2 64 9 8 8 15 7
25 -6 8 -9 12 -11 8 -4 -8 15 21 17 30 2 11 -18 85 -8 96 12 7 14 6 20 -6 24
-23 9 -18 23 6 17 13 -4 19 -12 16 -23 -2 -10 4 -22 16 -30 17 -10 23 -10 34
6 7 10 13 14 13 8 0 -5 14 -10 30 -11 21 -2 30 2 30 13 0 8 5 12 10 9 6 -3 16
-3 23 2 22 13 47 13 70 -1 27 -16 89 -16 95 2 2 7 -2 11 -9 10 -9 -2 -13 5
-11 22 2 22 -3 27 -40 38 -82 24 -216 23 -201 -2 4 -6 -1 -5 -10 2 -9 8 -31
13 -49 11 -18 -1 -44 1 -58 4 -47 11 -135 14 -159 5 -19 -7 -22 -6 -17 8 4 11
2 15 -8 11 -8 -3 -27 -2 -43 2 -15 4 -57 5 -93 1 -36 -4 -93 -2 -128 4 l-62
10 6 51 c4 27 7 71 8 98 1 26 5 47 9 47 7 0 4 48 -9 135 -3 17 -6 44 -9 60 -2
17 -10 55 -18 85 -10 40 -11 61 -4 78 7 16 7 26 -1 34 -6 6 -7 19 -2 32 13 36
2 205 -15 222 -18 18 -41 9 -26 -10 8 -9 7 -13 -2 -14 -18 -1 -74 -20 -62 -21
14 -1 18 -51 4 -51 -6 0 -9 -10 -7 -22 2 -13 9 -22 15 -21 6 1 14 -4 17 -12 4
-10 -1 -15 -14 -15 -16 0 -20 -7 -19 -32 0 -18 -1 -52 -3 -75 -2 -25 0 -44 6
-46 7 -3 6 -9 -2 -19 -9 -12 -10 -18 -2 -23 7 -4 8 -11 2 -18 -13 -16 -3 -89
11 -80 6 3 7 1 3 -5 -3 -6 -9 -68 -11 -137 -3 -86 -9 -137 -20 -157 -8 -17
-15 -42 -15 -55 l0 -24 -147 6 c-82 4 -168 6 -193 5 -25 -1 -121 -3 -215 -5
-93 -2 -192 -6 -220 -8 -62 -6 -261 -19 -295 -19 -13 0 -30 -7 -38 -16 -7 -10
-11 -12 -8 -5 5 9 -17 11 -86 8 -244 -11 -243 -11 -243 18 -1 14 -10 36 -20
48 -19 21 -19 22 -1 16 17 -7 18 1 11 200 -4 115 -9 237 -11 273 -2 36 -4 81
-5 100 -1 19 -7 38 -13 42 -8 5 -7 8 2 8 6 0 12 9 12 20 0 23 -20 70 -30 70
-4 0 -7 15 -6 33 3 41 -3 57 -18 51 -9 -3 -12 6 -11 31 1 32 -5 40 -28 36 -4
-1 -10 6 -13 14 -7 17 -34 21 -34 5z m50 -139 c0 -6 -4 -12 -8 -15 -5 -3 -9 1
-9 9 0 8 4 15 9 15 4 0 8 -4 8 -9z m1630 -288 c-1 -24 -2 -26 -11 -10 -5 9 -7
22 -4 27 10 17 15 11 15 -17z m69 -66 c-2 -2 -12 -9 -21 -16 -15 -11 -18 -11
-18 1 0 7 10 14 21 15 12 1 20 1 18 0z m811 -521 c0 -2 -8 -10 -17 -17 -16
-13 -17 -12 -4 4 13 16 21 21 21 13z m57 -21 c0 -8 -4 -12 -9 -9 -4 3 -8 9 -8
15 0 5 4 9 8 9 5 0 9 -7 9 -15z m-1127 -64 c71 1 133 0 136 -4 4 -3 7 -39 8
-78 1 -46 6 -74 14 -77 18 -6 14 -22 -5 -22 -15 0 -14 -2 3 -15 10 -8 14 -15
8 -15 -6 0 -11 -26 -12 -61 -1 -49 2 -65 16 -75 15 -11 17 -35 19 -196 1 -101
4 -203 6 -228 2 -25 0 -51 -6 -58 -7 -8 -6 -21 1 -37 6 -14 9 -32 5 -41 -3 -9
0 -20 8 -25 11 -7 11 -9 1 -9 -10 0 -12 -25 -11 -105 1 -63 5 -105 11 -105 7
0 6 -5 -1 -14 -8 -9 -10 -51 -5 -137 6 -131 6 -190 -1 -198 -7 -6 -138 -5
-295 3 -190 10 -255 9 -573 -9 -101 -6 -153 -12 -162 -22 -10 -10 -14 -10 -18
0 -3 9 -8 9 -20 -2 -15 -11 -17 -11 -17 1 0 10 -9 13 -32 11 -18 -2 -80 -6
-138 -9 -58 -3 -116 -8 -130 -11 -30 -7 -109 -7 -116 -1 -2 3 -6 26 -8 51 -2
25 -11 61 -20 78 -20 39 -20 43 -2 36 12 -5 15 13 15 99 1 58 -3 114 -9 124
-7 12 -6 20 0 22 15 5 15 349 -1 358 -8 5 -8 9 0 14 13 8 13 228 0 263 -5 13
-4 25 1 28 13 8 13 81 0 106 -6 10 -7 19 -2 19 7 0 13 106 12 210 -1 46 1 74
4 78 2 2 15 4 28 6 13 1 29 5 35 9 6 4 14 3 18 -2 3 -6 11 -8 18 -5 7 2 64 6
128 7 63 2 120 6 126 10 5 3 20 5 32 2 11 -2 21 -1 21 3 0 4 28 7 62 7 45 0
62 4 60 13 -2 14 15 17 20 2 4 -12 17 -12 173 -5 66 3 186 7 267 8 81 2 150 6
154 10 4 3 15 2 25 -4 11 -5 77 -9 149 -8z m315 -1061 c3 -5 1 -10 -4 -10 -6
0 -11 5 -11 10 0 6 2 10 4 10 3 0 8 -4 11 -10z m15 -160 c0 -5 -4 -10 -10 -10
-5 0 -10 5 -10 10 0 6 5 10 10 10 6 0 10 -4 10 -10z m765 -341 c10 -14 1 -21
-19 -13 -9 3 -13 10 -10 15 7 12 21 11 29 -2z m-140 -19 c-10 -11 -21 -18 -23
-15 -3 3 3 12 14 20 27 20 30 18 9 -5z m-678 -832 c-3 -8 -6 -5 -6 6 -1 11 2
17 5 13 3 -3 4 -12 1 -19z m20 -174 c-3 -3 -12 -4 -19 -1 -8 3 -5 6 6 6 11 1
17 -2 13 -5z"/>
<path d="M4254 3295 c2 -5 9 -9 16 -7 6 1 14 -7 17 -18 6 -24 33 -27 33 -4 0
10 6 14 14 11 10 -4 12 0 9 14 -4 16 -13 19 -49 17 -24 -2 -42 -7 -40 -13z"/>
</g>
</svg>
