<?xml version="1.0" standalone="no"?>
<!DOCTYPE svg PUBLIC "-//W3C//DTD SVG 20010904//EN"
 "http://www.w3.org/TR/2001/REC-SVG-20010904/DTD/svg10.dtd">
<svg version="1.0" xmlns="http://www.w3.org/2000/svg"
 width="945.000000pt" height="945.000000pt" viewBox="0 0 945.000000 945.000000"
 preserveAspectRatio="xMidYMid meet">

<g transform="translate(0.000000,945.000000) scale(0.100000,-0.100000)"
fill="#000000" stroke="none">
<path d="M4335 9410 l-39 -40 174 -175 175 -175 -175 -175 -175 -175 43 -42
42 -43 175 175 175 175 175 -175 175 -175 42 42 42 42 -174 176 -175 175 175
175 175 175 -43 42 -42 43 -175 -175 -175 -175 -173 173 c-95 94 -175 172
-178 172 -3 0 -23 -18 -44 -40z m222 -162 l173 -173 175 175 175 175 27 -28
28 -27 -175 -175 -175 -175 175 -175 175 -175 -28 -27 -27 -28 -175 175 -175
175 -175 -175 -175 -175 -27 28 -28 27 175 175 175 175 -175 175 -174 174 24
26 c13 14 26 25 29 25 3 0 83 -78 178 -172z"/>
<path d="M5481 9434 c-212 -57 -350 -268 -314 -480 16 -94 62 -181 128 -243
171 -161 429 -159 594 6 172 173 173 432 1 604 -111 112 -260 153 -409 113z
m232 -24 c123 -38 229 -144 267 -267 98 -316 -197 -611 -513 -513 -123 38
-229 144 -267 267 -98 316 197 611 513 513z"/>
<path d="M5478 9335 c-95 -35 -172 -116 -205 -211 -22 -66 -15 -185 17 -249
31 -63 92 -124 155 -156 42 -20 64 -24 145 -24 111 0 167 21 235 90 69 68 90
124 90 235 0 81 -4 103 -24 145 -32 63 -93 124 -156 155 -61 30 -197 38 -257
15z m185 -10 c103 -27 168 -82 215 -184 38 -82 35 -170 -7 -255 -103 -210
-372 -244 -524 -65 -96 111 -94 292 4 403 49 56 90 81 160 100 70 19 83 19
152 1z"/>
<path d="M7220 9439 c-75 -15 -163 -64 -219 -124 -205 -216 -141 -555 128
-684 72 -34 81 -36 176 -35 80 0 112 5 158 23 114 45 216 153 252 266 13 43
16 80 13 158 -4 91 -8 109 -37 166 -90 175 -279 268 -471 230z m255 -47 c272
-128 327 -467 109 -672 -87 -81 -149 -104 -279 -105 -92 0 -105 3 -167 32 -40
19 -89 53 -118 83 -30 29 -64 78 -83 118 -30 62 -32 75 -32 172 0 97 2 110 31
170 97 205 339 295 539 202z"/>
<path d="M7200 9335 c-63 -21 -136 -77 -171 -133 -105 -165 -49 -382 123 -478
49 -27 61 -29 153 -29 86 0 107 3 149 24 150 74 225 259 166 413 -27 72 -97
151 -164 185 -64 33 -185 41 -256 18z m249 -34 c132 -68 201 -228 161 -373
-28 -98 -122 -186 -230 -214 -108 -27 -208 1 -292 83 -65 64 -92 128 -92 223
-1 62 4 85 27 132 33 67 109 140 170 162 63 23 199 16 256 -13z"/>
<path d="M7775 9410 l-39 -40 174 -175 175 -175 -175 -175 -175 -175 43 -42
43 -43 169 173 c93 94 173 172 177 172 4 0 85 -77 180 -172 l173 -172 35 34
c19 19 35 39 35 44 0 6 -78 88 -172 183 l-173 173 175 175 175 175 -40 40 -40
40 -175 -175 -175 -175 -175 175 -176 175 -39 -40z m214 -160 c90 -93 168
-170 174 -170 7 0 89 78 184 172 l173 173 27 -28 28 -27 -173 -173 c-94 -95
-172 -177 -172 -182 0 -6 76 -87 170 -180 l170 -169 -27 -28 -27 -29 -176 176
-175 175 -175 -175 -174 -175 -28 27 -29 27 176 176 175 176 -41 39 c-22 22
-99 102 -171 178 l-131 138 23 24 c13 14 26 25 30 25 4 0 80 -76 169 -170z"/>
<path d="M8925 9436 c-125 -31 -229 -116 -287 -234 -31 -64 -33 -72 -33 -182
0 -110 2 -118 33 -182 159 -325 614 -327 773 -3 33 67 34 74 34 185 0 111 -1
118 -34 185 -90 184 -292 279 -486 231z m268 -43 c319 -150 325 -584 9 -740
-73 -36 -80 -38 -177 -38 -92 0 -106 3 -168 32 -255 121 -320 442 -132 651 46
51 135 105 201 121 22 6 75 9 119 7 66 -2 93 -8 148 -33z"/>
<path d="M8919 9337 c-91 -34 -155 -93 -196 -182 -73 -160 -5 -350 159 -437
37 -20 58 -23 143 -23 89 0 106 3 150 27 62 32 130 104 158 166 30 66 30 198
0 264 -29 63 -96 134 -158 166 -61 31 -196 41 -256 19z m237 -32 c64 -28 123
-86 155 -151 20 -40 24 -64 24 -134 0 -70 -4 -94 -24 -134 -80 -161 -272 -226
-431 -146 -91 46 -170 176 -170 280 0 101 78 232 165 278 86 45 191 48 281 7z"/>
<path d="M6050 9405 l-34 -35 174 -175 175 -175 -175 -175 -175 -175 43 -42
42 -43 175 175 175 175 175 -175 175 -174 35 34 c19 19 35 39 35 45 0 5 -77
87 -170 180 l-170 170 170 170 c93 94 170 175 170 181 0 13 -62 74 -76 74 -5
0 -86 -77 -179 -170 l-170 -170 -170 170 c-94 93 -175 170 -181 170 -5 0 -25
-16 -44 -35z m227 -157 l173 -173 175 175 175 175 27 -28 28 -27 -173 -173
c-94 -95 -172 -177 -172 -182 0 -6 76 -87 170 -180 l170 -169 -27 -28 -27 -29
-176 176 -175 175 -175 -175 -174 -175 -28 27 -29 27 178 178 178 178 -175
175 -174 174 24 26 c13 14 26 25 29 25 3 0 83 -78 178 -172z"/>
<path d="M357 9093 c-31 -32 -57 -60 -57 -63 0 -3 117 -122 260 -265 l260
-260 -262 -262 -263 -263 63 -62 62 -63 263 263 262 262 262 -262 263 -263 55
55 c30 30 55 59 55 65 0 5 -116 126 -257 267 l-258 258 258 258 c141 141 257
264 257 272 0 9 -25 40 -55 70 l-55 55 -263 -263 -262 -262 -260 260 c-143
143 -262 260 -266 260 -3 0 -31 -26 -62 -57z m328 -245 l256 -261 265 264 264
264 40 -41 41 -40 -262 -268 -262 -267 262 -262 261 -263 -40 -39 -40 -39
-258 257 c-141 141 -262 257 -267 257 -5 0 -126 -116 -267 -257 l-258 -258
-42 43 -43 42 258 258 c141 141 257 262 257 267 0 5 -116 126 -257 267 l-257
258 39 40 c21 22 42 40 46 40 4 0 122 -118 264 -262z"/>
<path d="M3482 8557 c-18 -18 -32 -37 -32 -43 0 -5 77 -86 170 -179 l170 -170
-170 -170 c-93 -94 -170 -175 -170 -181 0 -13 62 -74 76 -74 5 0 86 77 179
170 l170 170 170 -170 c94 -93 175 -170 181 -170 5 0 25 16 44 35 l34 35 -174
175 -173 174 172 177 172 177 -40 41 -41 41 -175 -175 -175 -175 -173 173
c-95 94 -175 172 -178 172 -3 0 -19 -15 -37 -33z m566 -164 l177 177 28 -27
27 -28 -177 -177 -178 -178 175 -175 175 -175 -28 -27 -27 -28 -175 175 -175
175 -175 -175 -175 -175 -27 28 -28 27 174 174 175 175 -131 138 c-72 76 -150
156 -172 177 l-41 40 28 29 27 29 173 -178 172 -178 178 177z"/>
<path d="M4605 8572 c-117 -40 -214 -126 -263 -230 -25 -52 -27 -68 -27 -177
0 -114 2 -123 32 -187 41 -86 109 -155 198 -199 67 -33 74 -34 185 -34 114 0
117 1 192 37 116 58 191 151 224 278 55 216 -72 445 -283 510 -81 25 -189 26
-258 2z m258 -21 c223 -77 333 -320 247 -544 -63 -164 -269 -281 -441 -249
-164 30 -280 133 -330 293 -66 211 57 436 276 505 62 20 183 17 248 -5z"/>
<path d="M4662 8490 c-98 -20 -187 -92 -234 -189 -32 -67 -36 -179 -8 -253 28
-75 96 -150 168 -185 49 -24 69 -28 142 -28 71 0 94 4 142 27 66 31 128 91
160 156 17 35 24 69 26 134 4 76 1 93 -23 146 -62 139 -224 223 -373 192z
m199 -42 c141 -65 215 -222 174 -364 -44 -152 -169 -241 -323 -232 -83 4 -146
34 -207 95 -109 111 -115 302 -12 419 97 110 239 142 368 82z"/>
<path d="M5195 8550 l-39 -40 174 -175 175 -175 -175 -175 -175 -175 43 -42
42 -43 175 175 175 175 175 -175 175 -175 42 43 43 42 -175 175 -175 175 175
175 174 176 -42 42 -42 42 -175 -175 -175 -175 -173 173 c-95 94 -175 172
-178 172 -3 0 -23 -18 -44 -40z m222 -162 l173 -173 175 175 175 175 27 -28
28 -27 -175 -175 -175 -175 175 -175 175 -175 -28 -27 -27 -28 -175 175 -175
175 -175 -175 -175 -175 -27 28 -28 27 175 175 175 175 -175 175 -174 174 24
26 c13 14 26 25 29 25 3 0 83 -78 178 -172z"/>
<path d="M6347 8580 c-107 -27 -222 -119 -276 -219 -112 -210 -23 -481 194
-587 57 -27 67 -29 185 -29 118 0 128 2 185 30 33 16 85 54 116 85 212 211
148 563 -127 692 -54 25 -81 31 -152 34 -48 2 -104 -1 -125 -6z m258 -39 c78
-35 125 -71 172 -134 127 -173 105 -401 -52 -546 -169 -155 -419 -143 -578 29
-78 84 -101 147 -102 275 0 92 3 105 32 167 51 108 140 185 258 225 62 20 208
12 270 -16z"/>
<path d="M6391 8489 c-112 -19 -211 -100 -252 -208 -28 -75 -24 -194 10 -263
30 -63 88 -121 153 -155 47 -25 63 -28 148 -28 83 0 101 3 145 27 64 34 120
90 153 153 34 67 42 180 17 254 -35 107 -144 203 -245 217 -25 3 -52 7 -60 9
-8 1 -39 -2 -69 -6z m196 -45 c229 -111 235 -436 11 -560 -48 -26 -62 -29
-148 -29 -86 0 -100 3 -148 29 -177 98 -221 332 -91 480 100 113 245 144 376
80z"/>
<path d="M6915 8550 l-39 -40 174 -175 175 -175 -175 -175 -174 -175 34 -35
c19 -19 39 -35 45 -35 5 0 87 77 180 170 l170 170 170 -170 c94 -93 175 -170
181 -170 12 0 74 62 74 75 0 5 -76 86 -170 180 l-170 170 170 170 c94 93 170
175 170 180 0 6 -16 26 -35 45 l-35 34 -175 -174 -175 -175 -173 173 c-95 94
-175 172 -178 172 -3 0 -23 -18 -44 -40z m770 -10 l28 -29 -174 -176 -173
-176 174 -174 175 -175 -28 -27 -27 -28 -175 175 -175 175 -175 -175 -175
-175 -27 28 -28 27 175 175 175 175 -175 175 -175 175 28 27 27 28 175 -175
176 -175 172 176 c95 97 172 177 173 178 0 0 13 -12 29 -29z"/>
<path d="M8036 8571 c-247 -82 -367 -364 -252 -596 42 -86 116 -159 204 -202
53 -26 66 -28 177 -28 116 0 123 1 188 33 86 43 156 113 199 199 32 65 33 72
33 188 0 116 -1 123 -32 186 -41 84 -121 160 -210 202 -88 41 -214 48 -307 18z
m305 -37 c258 -122 317 -458 115 -660 -166 -165 -423 -161 -584 10 -75 79
-105 149 -110 257 -8 156 54 278 186 368 66 46 130 62 232 58 81 -2 104 -7
161 -33z"/>
<path d="M8097 8490 c-235 -59 -335 -324 -198 -524 113 -164 373 -180 511 -30
66 72 85 123 85 229 0 101 -18 150 -81 223 -67 79 -216 127 -317 102z m195
-38 c62 -27 124 -86 156 -146 23 -44 27 -63 27 -141 0 -106 -20 -157 -87 -224
-59 -58 -117 -83 -202 -89 -263 -16 -423 268 -276 489 79 120 250 170 382 111z"/>
<path d="M2622 7697 c-18 -18 -32 -37 -32 -43 0 -5 77 -86 170 -179 l170 -170
-170 -170 c-93 -94 -170 -175 -170 -181 0 -13 62 -74 76 -74 5 0 86 77 179
170 l170 170 170 -170 c94 -93 175 -170 181 -170 5 0 25 16 44 35 l34 35 -174
175 -175 175 173 173 c94 95 172 177 172 183 0 12 -62 74 -75 74 -6 0 -88 -78
-183 -172 l-173 -173 -167 173 c-92 95 -172 173 -178 172 -5 0 -24 -15 -42
-33z m568 -162 l174 175 28 -27 29 -27 -176 -176 -175 -175 175 -175 175 -174
-27 -28 -27 -29 -171 171 c-93 93 -175 170 -180 170 -5 0 -87 -77 -180 -170
l-171 -171 -27 29 -27 28 170 169 c94 93 170 174 170 180 0 6 -76 87 -170 180
l-170 169 27 28 27 29 176 -176 175 -175 175 175z"/>
<path d="M3745 7713 c-118 -42 -209 -122 -262 -231 -26 -53 -28 -66 -28 -177
0 -115 1 -123 32 -186 40 -81 130 -169 210 -207 53 -25 68 -27 178 -27 111 0
124 2 177 28 89 44 161 116 205 205 37 74 38 79 38 186 0 104 -2 115 -32 179
-42 89 -121 168 -210 210 -59 27 -81 32 -163 34 -72 3 -107 -1 -145 -14z m240
-15 c64 -16 132 -57 186 -115 226 -239 90 -628 -238 -685 -58 -9 -80 -9 -145
6 -164 36 -278 151 -314 315 -15 64 -15 86 -5 144 23 138 108 253 228 310 96
45 180 52 288 25z"/>
<path d="M3797 7630 c-93 -24 -171 -85 -218 -172 -31 -59 -34 -69 -33 -153 0
-73 4 -99 23 -136 34 -71 83 -122 153 -159 57 -31 71 -34 148 -35 71 0 94 4
141 26 73 34 134 96 167 168 38 82 37 195 -1 273 -55 112 -157 183 -277 192
-36 3 -82 1 -103 -4z m205 -38 c59 -26 127 -93 159 -157 36 -75 35 -189 -4
-267 -94 -192 -345 -237 -500 -89 -139 131 -125 360 28 477 86 65 217 80 317
36z"/>
<path d="M4342 7697 c-18 -18 -32 -37 -32 -43 0 -5 77 -86 170 -179 l170 -170
-170 -170 c-93 -94 -170 -177 -170 -185 0 -19 50 -70 69 -70 9 0 92 77 186
170 l171 170 163 -170 c89 -93 170 -170 180 -170 9 0 32 16 51 35 l34 35 -174
175 -175 175 175 175 175 175 -43 42 -42 43 -175 -175 -175 -175 -173 173
c-95 94 -175 172 -178 172 -3 0 -19 -15 -37 -33z m215 -169 l173 -173 175 175
175 175 27 -28 28 -27 -175 -175 -175 -175 175 -175 175 -175 -28 -27 -27 -28
-175 175 -175 175 -175 -175 -175 -175 -27 28 -28 27 175 175 175 175 -175
175 -174 174 24 26 c13 14 26 25 29 25 3 0 83 -78 178 -172z"/>
<path d="M5486 7719 c-110 -26 -234 -129 -284 -236 -25 -53 -27 -68 -27 -183
0 -122 1 -126 33 -189 45 -85 116 -155 200 -194 64 -30 73 -32 187 -32 111 0
124 2 177 28 163 80 259 245 245 421 -7 87 -25 140 -74 213 -93 140 -285 212
-457 172z m237 -28 c111 -38 188 -109 241 -221 29 -60 31 -73 31 -170 0 -93
-4 -112 -27 -163 -77 -164 -265 -269 -433 -240 -168 29 -285 131 -336 294 -66
210 58 436 276 505 62 20 183 17 248 -5z"/>
<path d="M5528 7630 c-99 -17 -192 -90 -240 -189 -32 -67 -36 -179 -8 -253 28
-75 96 -150 168 -185 50 -25 68 -28 147 -28 78 1 97 4 143 28 118 62 175 152
180 289 4 76 1 94 -21 142 -66 143 -214 222 -369 196z m194 -43 c179 -83 239
-301 127 -464 -109 -158 -342 -179 -479 -43 -203 204 -46 554 242 536 33 -2
80 -15 110 -29z"/>
<path d="M6057 7692 l-37 -38 175 -174 175 -175 -177 -177 -177 -178 34 -35
c19 -19 42 -35 51 -35 9 0 91 76 181 169 l165 170 169 -170 c93 -93 176 -169
185 -169 9 0 31 16 49 36 l32 37 -176 176 -176 176 175 175 175 175 -40 40
-40 40 -175 -175 -175 -175 -173 173 c-95 94 -175 172 -178 172 -3 0 -22 -17
-42 -38z m220 -164 l173 -173 175 175 175 175 27 -28 28 -27 -175 -175 -175
-175 175 -175 175 -175 -28 -27 -27 -28 -175 175 -175 175 -175 -175 -175
-175 -27 28 -28 27 175 175 175 175 -175 175 -174 174 24 26 c13 14 26 25 29
25 3 0 83 -78 178 -172z"/>
<path d="M7203 7720 c-167 -39 -307 -206 -320 -382 -14 -182 80 -342 247 -422
61 -29 72 -31 180 -31 109 0 119 2 182 32 171 81 273 276 239 458 -39 212
-213 357 -425 354 -39 -1 -85 -4 -103 -9z m244 -31 c106 -36 188 -113 240
-225 24 -52 28 -71 28 -159 0 -97 -2 -104 -38 -177 -165 -335 -637 -302 -757
53 -49 144 -3 321 111 423 117 105 267 136 416 85z"/>
<path d="M7237 7630 c-97 -25 -180 -90 -229 -182 -20 -37 -23 -58 -23 -143 0
-89 3 -106 27 -150 32 -62 104 -130 166 -158 36 -16 67 -21 132 -22 73 0 93 4
141 28 64 31 126 93 160 159 33 64 38 185 10 259 -56 149 -235 246 -384 209z
m201 -40 c106 -46 185 -166 185 -284 1 -265 -303 -411 -512 -246 -73 58 -116
149 -115 244 2 228 231 377 442 286z"/>
<path d="M1760 6835 l-34 -35 174 -175 175 -175 -173 -173 c-94 -95 -172 -177
-172 -183 0 -13 62 -74 76 -74 5 0 86 77 179 170 l170 170 170 -170 c94 -93
175 -170 181 -170 13 0 74 62 74 76 0 5 -76 86 -170 179 l-170 170 143 145
c78 80 156 160 172 178 l29 32 -34 35 c-19 19 -39 35 -45 35 -5 0 -87 -77
-180 -170 l-170 -170 -170 170 c-94 93 -175 170 -181 170 -5 0 -25 -16 -44
-35z m395 -325 c6 0 87 76 180 170 l169 170 28 -27 29 -27 -171 -171 c-93 -93
-170 -175 -170 -180 0 -6 76 -87 170 -180 l170 -169 -27 -28 -27 -29 -176 176
-175 175 -175 -175 -174 -175 -28 27 -29 27 176 176 175 175 -175 175 -175
174 27 28 27 29 171 -171 c93 -93 175 -170 180 -170z"/>
<path d="M2885 6857 c-93 -31 -179 -99 -234 -185 -72 -114 -82 -280 -23 -405
41 -87 116 -163 207 -208 67 -32 74 -34 180 -34 102 0 115 2 175 31 95 45 162
111 207 202 37 75 38 78 38 192 0 110 -2 119 -32 180 -41 83 -120 162 -202
203 -59 29 -75 32 -171 34 -66 2 -120 -2 -145 -10z m230 -12 c160 -42 272
-164 305 -332 33 -167 -66 -356 -229 -436 -62 -30 -72 -32 -176 -32 -104 0
-114 2 -176 32 -73 36 -154 114 -189 182 -35 70 -52 171 -41 242 40 248 271
404 506 344z"/>
<path d="M2909 6764 c-181 -63 -276 -277 -199 -451 25 -56 102 -137 154 -162
179 -87 382 -10 462 174 12 27 18 67 18 125 1 78 -2 90 -33 148 -38 70 -90
120 -160 154 -59 28 -177 34 -242 12z m211 -21 c160 -52 250 -246 190 -407
-57 -150 -224 -235 -375 -191 -231 67 -310 337 -149 514 36 41 91 75 144 92
44 13 136 9 190 -8z"/>
<path d="M3482 6837 c-18 -18 -32 -37 -32 -43 0 -5 77 -86 170 -179 l170 -170
-170 -170 c-93 -94 -170 -175 -170 -181 0 -13 62 -74 76 -74 5 0 86 77 179
170 l170 170 170 -170 c94 -93 175 -170 181 -170 5 0 25 16 44 35 l34 35 -174
175 -175 175 173 173 c94 95 172 177 172 183 0 13 -62 74 -76 74 -5 0 -86 -77
-179 -170 l-170 -170 -170 170 c-94 93 -175 170 -181 170 -5 0 -24 -15 -42
-33z m568 -162 l174 175 28 -27 29 -27 -176 -176 -175 -175 175 -175 175 -174
-27 -28 -27 -29 -171 171 c-93 93 -175 170 -180 170 -5 0 -87 -77 -180 -170
l-171 -171 -27 29 -27 28 170 169 c94 93 170 174 170 180 0 6 -76 87 -170 180
l-170 169 27 28 27 29 176 -176 175 -175 175 175z"/>
<path d="M4603 6856 c-104 -34 -213 -131 -261 -233 -25 -53 -27 -69 -27 -178
0 -111 2 -124 28 -177 44 -89 116 -161 205 -205 74 -37 79 -38 186 -38 104 0
115 2 179 32 88 42 163 117 208 208 32 67 34 74 34 180 0 103 -2 114 -32 177
-44 94 -109 160 -201 206 -70 34 -82 37 -176 39 -65 2 -116 -2 -143 -11z m220
-11 c87 -23 147 -57 205 -119 153 -161 154 -399 3 -559 -236 -249 -644 -122
-702 220 -24 138 39 295 153 381 107 81 224 107 341 77z"/>
<path d="M4654 6771 c-53 -14 -135 -64 -170 -104 -60 -71 -78 -121 -78 -222
-1 -84 2 -94 33 -153 64 -118 162 -176 296 -177 67 0 89 4 137 28 71 35 130
93 165 165 38 78 39 191 1 273 -52 115 -162 189 -287 195 -36 2 -80 0 -97 -5z
m190 -31 c72 -27 139 -88 173 -158 39 -78 40 -192 4 -267 -32 -63 -99 -131
-159 -158 -73 -34 -189 -31 -264 6 -258 127 -225 503 52 588 49 14 138 9 194
-11z"/>
<path d="M5202 6837 c-18 -18 -32 -37 -32 -43 0 -5 77 -86 170 -179 l170 -170
-170 -170 c-93 -94 -170 -175 -170 -181 0 -5 16 -25 35 -44 l35 -34 175 174
175 175 175 -175 175 -174 40 39 40 39 -170 171 c-93 94 -170 175 -170 180 0
5 77 87 172 182 l172 173 -34 35 c-19 19 -39 35 -44 35 -6 0 -89 -78 -184
-172 l-173 -173 -167 173 c-92 95 -172 173 -178 172 -5 0 -24 -15 -42 -33z
m394 -327 c6 0 86 77 179 171 l168 170 23 -22 c13 -12 24 -27 24 -33 0 -5 -76
-87 -170 -181 l-170 -170 170 -170 c94 -93 170 -175 170 -181 0 -6 -10 -20
-23 -32 l-23 -21 -169 169 c-93 94 -174 170 -180 170 -5 0 -87 -77 -180 -170
l-171 -171 -27 29 -27 28 170 169 c94 93 170 174 170 180 0 6 -76 87 -170 180
l-170 169 27 28 27 29 171 -171 c93 -93 175 -170 181 -170z"/>
<path d="M6297 6846 c-112 -47 -176 -106 -233 -216 -27 -52 -29 -62 -29 -180
0 -121 1 -128 32 -191 41 -83 121 -160 210 -201 182 -86 416 -21 526 145 49
73 67 126 74 213 14 177 -79 337 -243 419 -53 26 -71 29 -169 32 -98 3 -116 1
-168 -21z m235 3 c124 -27 242 -121 296 -236 23 -51 27 -70 27 -163 0 -97 -2
-110 -31 -171 -54 -113 -137 -187 -253 -224 -83 -27 -208 -18 -291 21 -145 68
-240 217 -240 375 0 101 56 225 133 296 100 92 230 129 359 102z"/>
<path d="M6353 6766 c-96 -31 -178 -110 -214 -205 -17 -44 -20 -71 -17 -132 7
-128 70 -224 184 -280 170 -84 370 -9 451 167 22 48 25 66 21 142 -4 101 -26
157 -88 221 -60 62 -129 92 -219 97 -48 3 -92 -1 -118 -10z m207 -25 c100 -38
164 -110 195 -215 42 -143 -33 -297 -175 -365 -73 -34 -182 -36 -251 -4 -114
52 -189 164 -189 284 0 142 78 256 207 304 56 20 154 18 213 -4z"/>
<path d="M890 5975 l-34 -35 174 -175 175 -175 -55 -57 c-30 -32 -108 -112
-173 -178 l-117 -121 40 -39 40 -39 175 174 175 175 175 -175 175 -174 40 39
40 39 -175 176 -175 175 170 170 c93 93 170 175 170 180 0 14 -62 75 -76 75
-5 0 -86 -77 -179 -170 l-170 -170 -170 170 c-94 93 -175 170 -181 170 -5 0
-25 -16 -44 -35z m227 -157 l173 -173 175 175 175 175 27 -28 28 -27 -175
-175 -175 -175 175 -175 174 -174 -27 -29 -27 -28 -175 175 -175 176 -175
-175 -175 -175 -27 28 -28 27 175 175 175 175 -175 175 -174 174 24 26 c13 14
26 25 29 25 3 0 83 -78 178 -172z"/>
<path d="M2003 5991 c-238 -88 -348 -357 -240 -585 126 -266 467 -328 682
-125 213 201 159 554 -106 690 -59 31 -72 33 -174 36 -89 3 -120 0 -162 -16z
m243 -5 c223 -59 358 -286 299 -502 -33 -121 -114 -217 -233 -272 -50 -24 -69
-27 -162 -27 -97 0 -110 2 -172 32 -88 41 -160 113 -201 201 -29 61 -32 75
-32 167 0 130 23 191 105 278 108 116 254 161 396 123z"/>
<path d="M2060 5911 c-90 -28 -171 -96 -211 -177 -21 -42 -24 -63 -24 -149 0
-92 2 -104 29 -153 60 -108 166 -173 283 -174 86 0 136 13 197 54 100 66 152
175 144 302 -12 173 -157 308 -331 305 -34 0 -73 -4 -87 -8z m200 -30 c126
-48 200 -155 201 -293 1 -122 -67 -230 -179 -285 -47 -23 -70 -28 -132 -27
-93 0 -155 26 -222 91 -110 108 -125 276 -35 402 35 50 110 105 161 120 55 16
152 12 206 -8z"/>
<path d="M2610 5975 l-34 -35 172 -173 c95 -95 172 -177 172 -183 0 -5 -77
-86 -172 -181 l-172 -173 34 -35 c19 -19 39 -35 44 -35 6 0 87 77 181 170
l170 170 170 -170 c93 -93 175 -170 180 -170 14 0 75 62 75 76 0 5 -77 86
-170 179 l-170 170 170 170 c93 94 170 175 170 181 0 13 -62 74 -76 74 -5 0
-86 -77 -179 -170 l-170 -170 -170 170 c-94 93 -175 170 -181 170 -5 0 -25
-16 -44 -35z m395 -325 c6 0 87 76 180 170 l169 170 28 -27 29 -27 -171 -171
c-93 -93 -170 -175 -170 -180 0 -5 77 -87 170 -180 l171 -171 -29 -27 -28 -27
-169 170 c-93 94 -174 170 -180 170 -6 0 -87 -76 -180 -170 l-169 -170 -28 27
-29 27 176 176 175 175 -175 175 -175 174 27 28 27 29 171 -171 c93 -93 175
-170 180 -170z"/>
<path d="M3723 5991 c-109 -40 -195 -121 -247 -230 -29 -62 -31 -73 -31 -176
0 -106 2 -113 34 -180 44 -90 116 -162 206 -206 67 -33 74 -34 180 -34 108 0
113 1 187 38 89 44 161 116 205 205 26 53 28 66 28 177 0 116 -1 123 -32 186
-42 84 -118 160 -202 202 -59 29 -75 32 -171 35 -84 2 -115 -2 -157 -17z m242
-6 c207 -54 343 -259 306 -462 -50 -270 -326 -419 -576 -309 -72 33 -162 122
-201 201 -27 55 -29 69 -29 170 0 104 2 114 32 175 56 113 158 196 278 226 69
17 121 17 190 -1z"/>
<path d="M3784 5911 c-16 -4 -54 -21 -83 -37 -138 -75 -200 -246 -146 -404 25
-76 118 -169 195 -196 162 -55 331 9 410 158 32 58 35 70 35 153 0 78 -4 97
-28 146 -32 67 -100 132 -165 162 -51 22 -165 32 -218 18z m186 -27 c79 -23
172 -118 195 -199 86 -294 -231 -526 -482 -354 -86 60 -141 182 -129 288 23
201 217 324 416 265z"/>
<path d="M4330 5975 l-34 -35 64 -68 c36 -37 113 -117 172 -177 l108 -110
-170 -170 c-94 -93 -170 -175 -170 -180 0 -13 62 -75 75 -75 6 0 86 77 180
170 l170 170 170 -170 c93 -93 175 -170 180 -170 14 0 75 62 75 76 0 5 -76 86
-170 179 l-170 170 108 110 c59 60 136 140 172 177 l64 68 -34 35 c-19 19 -39
35 -45 35 -5 0 -87 -77 -180 -170 l-170 -170 -170 170 c-94 93 -175 170 -181
170 -5 0 -25 -16 -44 -35z m395 -325 c6 0 87 76 180 170 l169 170 28 -27 29
-27 -171 -171 c-93 -93 -170 -175 -170 -180 0 -5 77 -87 170 -180 l171 -171
-29 -27 -28 -27 -174 175 -175 175 -175 -175 -176 -176 -27 29 -27 28 170 169
c94 93 170 174 170 180 0 6 -76 87 -170 180 l-170 169 27 28 27 29 171 -171
c93 -93 175 -170 180 -170z"/>
<path d="M5427 5986 c-106 -44 -186 -121 -236 -226 -23 -49 -26 -67 -26 -170
0 -105 2 -120 28 -174 55 -119 146 -199 266 -236 207 -65 424 34 518 236 26
54 28 69 28 174 0 109 -2 118 -32 181 -41 84 -118 160 -202 202 -60 29 -74 32
-176 35 -98 2 -117 0 -168 -22z m258 -1 c118 -31 219 -113 269 -219 74 -156
46 -331 -71 -457 -88 -94 -189 -134 -322 -127 -71 3 -98 10 -152 36 -162 78
-262 268 -229 435 24 125 91 224 191 284 100 60 206 76 314 48z"/>
<path d="M5472 5902 c-66 -24 -118 -65 -160 -126 -96 -143 -75 -317 53 -435
65 -58 131 -83 220 -83 89 0 155 25 220 83 79 73 110 141 110 244 0 93 -27
164 -90 233 -80 90 -234 126 -353 84z m223 -19 c70 -24 156 -110 184 -186 76
-207 -74 -422 -294 -422 -232 0 -386 246 -282 451 31 62 112 137 170 157 57
21 163 21 222 0z"/>
<path d="M40 5115 l-34 -35 174 -175 175 -175 -175 -175 -175 -175 43 -42 42
-43 175 175 175 175 175 -175 175 -174 35 34 c19 19 35 39 35 45 0 5 -77 87
-170 180 l-170 170 170 170 c93 94 170 174 170 178 0 17 -53 77 -69 77 -8 0
-93 -77 -187 -171 l-171 -170 -165 170 c-91 94 -172 171 -180 171 -8 0 -29
-16 -48 -35z m227 -157 l173 -173 175 175 175 175 27 -28 28 -27 -175 -175
-175 -175 175 -175 175 -175 -28 -27 -27 -28 -175 175 -175 175 -175 -175
-175 -175 -27 28 -28 27 175 175 175 175 -175 175 -174 174 24 26 c13 14 26
25 29 25 3 0 83 -78 178 -172z"/>
<path d="M1149 5132 c-107 -43 -192 -125 -243 -231 -29 -61 -31 -74 -31 -171
0 -97 2 -110 32 -173 134 -281 493 -343 703 -121 197 208 133 554 -125 679
-54 26 -72 29 -175 32 -94 3 -123 0 -161 -15z m326 -36 c88 -44 155 -112 198
-204 28 -60 32 -77 32 -157 0 -108 -20 -173 -75 -246 -189 -252 -569 -215
-703 69 -30 62 -32 75 -32 172 0 98 2 109 32 170 78 159 222 245 397 236 65
-4 91 -10 151 -40z"/>
<path d="M1190 5044 c-148 -54 -227 -176 -218 -337 5 -95 36 -165 99 -222 73
-66 113 -80 224 -80 86 0 107 3 150 24 63 32 124 92 155 156 21 42 25 64 25
145 0 80 -4 102 -24 140 -32 62 -96 127 -156 158 -64 33 -187 41 -255 16z
m258 -39 c104 -56 153 -138 160 -263 4 -77 2 -87 -27 -147 -58 -118 -159 -180
-291 -179 -83 1 -149 29 -212 91 -87 85 -115 195 -79 311 26 88 79 149 164
192 58 30 68 31 147 28 70 -3 94 -9 138 -33z"/>
<path d="M1760 5115 l-34 -35 174 -175 175 -175 -145 -147 c-80 -82 -159 -163
-175 -181 l-29 -32 34 -35 c19 -19 39 -35 44 -35 6 0 88 77 181 170 l171 171
169 -171 c93 -93 174 -170 180 -170 13 0 75 62 75 76 0 5 -77 86 -170 179
l-170 170 170 170 c93 94 170 175 170 181 0 13 -62 74 -76 74 -5 0 -86 -77
-179 -170 l-170 -170 -170 170 c-94 93 -175 170 -181 170 -5 0 -25 -16 -44
-35z m395 -325 c6 0 87 76 180 170 l169 170 28 -27 29 -27 -171 -171 c-93 -93
-170 -175 -170 -180 0 -6 76 -87 170 -180 l170 -169 -27 -28 -27 -29 -176 176
-175 175 -175 -175 -174 -175 -28 27 -29 27 176 176 175 175 -175 175 -175
174 27 28 27 29 171 -171 c93 -93 175 -170 180 -170z"/>
<path d="M2883 5136 c-107 -35 -203 -122 -256 -234 -29 -61 -32 -75 -32 -167
0 -120 12 -163 67 -245 118 -178 352 -241 542 -146 89 44 155 111 199 204 30
63 32 73 32 182 0 111 -1 118 -33 183 -43 86 -113 156 -199 199 -62 30 -76 33
-173 35 -67 2 -120 -2 -147 -11z m230 -11 c83 -21 133 -50 192 -109 166 -166
162 -423 -9 -584 -77 -73 -150 -105 -252 -110 -267 -14 -467 200 -432 463 32
238 270 400 501 340z"/>
<path d="M2918 5047 c-148 -56 -230 -166 -232 -311 -1 -94 23 -162 81 -226
178 -199 495 -127 570 129 44 154 -37 328 -185 394 -59 26 -181 33 -234 14z
m208 -24 c72 -24 167 -121 188 -193 59 -199 -64 -392 -266 -416 -103 -12 -229
45 -287 130 -124 180 -39 423 169 487 44 13 145 9 196 -8z"/>
<path d="M3481 5116 l-34 -35 172 -178 171 -178 -170 -170 c-93 -94 -170 -175
-170 -181 0 -12 62 -74 75 -74 6 0 86 77 180 170 l170 170 170 -170 c93 -93
175 -170 180 -170 13 0 75 62 75 75 0 6 -78 87 -172 182 l-173 173 175 175
174 175 -34 35 c-19 19 -39 35 -45 35 -5 0 -87 -77 -180 -170 l-170 -170 -170
170 c-94 93 -175 170 -181 170 -5 0 -25 -15 -43 -34z m394 -326 c5 0 87 77
180 170 l171 171 27 -29 27 -28 -175 -174 -175 -175 175 -175 176 -176 -29
-27 -28 -27 -174 175 -175 175 -175 -175 -176 -176 -27 29 -27 28 170 169 c94
93 170 174 170 180 0 6 -76 87 -170 180 l-170 169 27 28 27 29 171 -171 c93
-93 175 -170 180 -170z"/>
<path d="M4599 5136 c-117 -45 -199 -117 -251 -223 -32 -65 -33 -72 -33 -183
0 -108 2 -119 31 -180 39 -81 96 -145 165 -187 219 -131 497 -47 610 182 33
67 34 74 34 185 0 109 -2 118 -32 180 -41 83 -119 162 -202 203 -60 29 -74 32
-176 34 -73 2 -122 -2 -146 -11z m253 -16 c82 -25 150 -71 200 -134 181 -228
85 -553 -190 -645 -240 -81 -491 75 -534 333 -9 52 -7 78 6 139 53 237 290
378 518 307z"/>
<path d="M4613 5039 c-70 -27 -142 -94 -178 -166 -25 -50 -29 -69 -29 -143 0
-101 20 -154 86 -226 65 -71 142 -104 243 -104 101 0 178 33 243 104 65 70 86
125 87 221 0 71 -4 88 -33 147 -60 122 -166 189 -300 187 -42 0 -86 -8 -119
-20z m232 -16 c71 -24 156 -110 185 -188 75 -203 -77 -419 -296 -419 -216 -1
-363 206 -297 415 22 70 116 168 183 192 60 21 165 21 225 0z"/>
<path d="M4335 4260 l-39 -40 174 -175 175 -175 -175 -175 -174 -175 34 -35
c19 -19 39 -35 45 -35 5 0 87 77 180 170 l170 170 170 -170 c94 -93 175 -170
181 -170 5 0 25 16 44 35 l34 35 -174 175 -175 175 175 175 174 175 -39 40
-39 40 -171 -170 c-94 -93 -175 -170 -180 -170 -5 0 -86 77 -180 170 l-171
170 -39 -40z m565 -155 l174 175 28 -27 29 -27 -171 -171 c-93 -93 -170 -174
-170 -179 0 -6 74 -85 165 -177 91 -91 165 -171 165 -176 0 -5 -11 -20 -24
-32 l-23 -22 -168 170 c-93 94 -173 171 -180 171 -6 0 -87 -76 -179 -170 -93
-93 -171 -170 -173 -170 -8 0 -42 44 -43 55 0 6 74 84 165 175 91 91 165 169
165 175 0 6 -76 87 -170 180 l-170 169 27 28 27 29 176 -176 175 -175 175 175z"/>
<path d="M5470 4284 c-119 -32 -217 -116 -274 -234 -29 -61 -31 -72 -31 -180
0 -109 2 -118 32 -181 41 -84 118 -160 202 -202 63 -31 70 -32 186 -32 116 0
123 1 186 32 84 42 161 118 202 202 30 63 32 72 32 181 0 105 -2 120 -28 174
-92 198 -299 296 -507 240z m243 -23 c99 -35 192 -113 237 -201 126 -247 -23
-541 -299 -592 -216 -40 -427 111 -471 339 -37 185 84 386 273 453 72 25 187
26 260 1z"/>
<path d="M5461 4182 c-63 -24 -145 -102 -178 -170 -24 -49 -28 -69 -28 -142 1
-73 5 -93 28 -138 39 -75 90 -127 155 -159 50 -24 69 -28 147 -28 78 0 97 4
147 28 67 33 121 90 157 166 38 81 37 193 -2 273 -35 71 -116 147 -183 171
-63 22 -183 22 -243 -1z m269 -35 c193 -97 228 -343 71 -498 -66 -65 -124 -89
-216 -89 -84 0 -145 23 -205 77 -191 172 -120 470 129 540 68 19 145 8 221
-30z"/>
<path d="M6055 4260 l-39 -40 174 -176 173 -176 -171 -171 c-95 -95 -172 -177
-172 -183 0 -5 16 -25 35 -44 l35 -34 175 174 175 175 175 -175 175 -175 42
43 43 42 -175 175 -175 175 175 175 175 175 -40 40 -40 40 -175 -175 -175
-175 -175 175 -176 175 -39 -40z m212 -162 l173 -173 175 175 175 175 27 -28
28 -27 -175 -175 -175 -175 178 -178 177 -177 -27 -28 -28 -27 -178 177 -179
178 -171 -178 -172 -178 -27 28 -27 28 171 179 171 178 -173 173 -174 174 24
26 c13 14 26 25 29 25 3 0 83 -78 178 -172z"/>
<path d="M7190 4285 c-116 -33 -208 -108 -266 -218 l-39 -72 0 -120 c0 -114 1
-123 32 -188 60 -127 178 -214 323 -239 242 -42 475 148 488 398 10 181 -81
334 -244 411 -88 42 -205 53 -294 28z m275 -39 c77 -35 135 -83 177 -148 54
-82 71 -145 66 -247 -7 -139 -68 -249 -180 -321 -251 -163 -575 -20 -630 278
-35 189 90 390 282 454 81 27 208 20 285 -16z"/>
<path d="M7165 4172 c-75 -37 -130 -91 -164 -162 -22 -46 -26 -69 -26 -140 0
-101 20 -154 86 -225 63 -69 126 -97 224 -103 98 -5 170 19 239 79 172 152
138 433 -66 544 -45 25 -67 30 -143 33 -83 3 -95 1 -150 -26z m265 -13 c60
-27 134 -101 162 -163 32 -72 31 -181 -1 -253 -26 -59 -103 -136 -157 -159
-214 -90 -444 58 -444 286 0 227 232 379 440 289z"/>
<path d="M7767 4262 l-37 -38 171 -177 171 -177 -172 -177 -172 -176 41 -41
41 -41 175 175 175 175 175 -175 175 -175 42 43 43 42 -175 175 -175 175 175
175 175 175 -43 42 -42 43 -175 -175 -175 -175 -173 173 c-95 94 -175 172
-178 172 -3 0 -22 -17 -42 -38z m220 -164 l173 -173 175 175 175 175 27 -28
28 -27 -175 -175 -175 -175 175 -175 175 -175 -28 -27 -27 -28 -175 175 -175
175 -175 -175 -175 -175 -27 28 -28 27 175 175 175 175 -175 175 -174 174 24
26 c13 14 26 25 29 25 3 0 83 -78 178 -172z"/>
<path d="M8916 4290 c-66 -17 -153 -70 -206 -126 -159 -168 -155 -431 9 -594
31 -31 83 -69 116 -85 57 -28 67 -30 185 -30 117 0 129 2 182 28 217 106 308
362 204 572 -44 90 -112 157 -203 202 -63 31 -83 36 -160 39 -48 2 -105 -1
-127 -6z m276 -47 c88 -41 160 -113 201 -201 29 -62 32 -75 32 -167 -1 -128
-24 -191 -101 -275 -65 -69 -121 -104 -200 -125 -147 -38 -300 8 -403 121
-132 145 -147 349 -36 509 83 121 197 177 350 172 77 -2 100 -7 157 -34z"/>
<path d="M8907 4186 c-229 -85 -292 -384 -115 -552 74 -72 118 -89 228 -89 85
0 101 3 148 28 67 35 122 90 153 153 21 42 24 63 24 149 0 85 -4 107 -23 143
-33 63 -84 114 -144 147 -45 25 -66 30 -143 32 -60 2 -103 -1 -128 -11z m243
-27 c58 -25 133 -101 160 -162 60 -136 11 -300 -114 -384 -58 -40 -103 -53
-178 -53 -282 0 -418 350 -210 541 94 88 223 109 342 58z"/>
<path d="M3482 3407 c-18 -18 -32 -37 -32 -42 0 -6 78 -87 172 -182 l173 -173
-175 -175 -174 -175 34 -35 c19 -19 39 -35 45 -35 5 0 87 77 180 170 l170 170
170 -170 c94 -93 175 -170 181 -170 5 0 25 16 44 35 l34 35 -174 175 -175 175
174 174 174 174 -33 41 c-18 23 -39 41 -46 41 -7 0 -86 -76 -177 -170 -90 -93
-169 -170 -174 -170 -6 0 -85 77 -176 170 -91 94 -170 170 -174 170 -5 0 -23
-15 -41 -33z m568 -162 l174 175 28 -27 29 -27 -171 -171 c-93 -93 -170 -175
-170 -180 0 -6 76 -87 170 -180 l170 -169 -27 -28 -27 -29 -171 171 c-93 93
-175 170 -180 170 -5 0 -87 -77 -180 -170 l-171 -171 -27 29 -27 28 170 169
c94 93 170 174 170 180 0 6 -76 87 -170 180 l-170 169 27 28 27 29 176 -176
175 -175 175 175z"/>
<path d="M4627 3429 c-112 -26 -219 -115 -274 -227 -37 -75 -38 -78 -38 -191
0 -110 2 -119 32 -181 41 -83 119 -162 203 -203 62 -31 70 -32 185 -32 109 0
125 2 177 27 63 29 136 92 178 154 79 115 93 292 33 415 -59 119 -143 192
-264 230 -64 20 -166 24 -232 8z m273 -41 c122 -55 218 -181 240 -313 47 -283
-223 -531 -500 -461 -164 42 -277 163 -310 333 -23 116 18 249 106 343 54 58
92 83 166 111 76 28 221 22 298 -13z"/>
<path d="M4677 3339 c-105 -17 -199 -89 -246 -189 -21 -46 -26 -69 -25 -140 0
-73 4 -92 27 -138 39 -75 87 -124 154 -158 52 -26 68 -29 148 -29 73 0 99 5
136 23 75 37 125 87 161 160 29 59 33 76 33 147 0 67 -5 89 -28 137 -67 136
-212 212 -360 187z m143 -25 c236 -70 307 -352 131 -524 -119 -118 -299 -123
-421 -13 -28 25 -63 69 -78 97 -23 44 -27 63 -27 136 0 73 4 93 28 142 68 137
221 205 367 162z"/>
<path d="M5202 3407 c-18 -18 -32 -37 -32 -42 0 -6 78 -87 172 -182 l173 -173
-173 -173 c-94 -95 -172 -177 -172 -183 0 -5 16 -25 35 -44 l35 -34 175 174
175 175 175 -175 175 -175 42 43 43 42 -175 175 -175 175 175 175 175 175 -43
42 -43 43 -172 -178 -172 -179 -175 176 c-96 97 -177 176 -180 176 -4 0 -20
-15 -38 -33z m215 -169 l173 -173 175 175 175 175 27 -28 28 -27 -175 -175
-175 -175 175 -175 175 -175 -28 -27 -27 -28 -175 175 -175 175 -175 -175
-175 -175 -27 28 -28 27 175 175 175 175 -175 175 -174 174 24 26 c13 14 26
25 29 25 3 0 83 -78 178 -172z"/>
<path d="M6341 3425 c-121 -34 -222 -118 -278 -233 -26 -53 -28 -66 -28 -177
0 -114 2 -123 32 -187 39 -84 109 -155 194 -200 63 -32 67 -33 189 -33 121 0
128 1 191 32 83 41 160 121 201 209 41 88 49 209 20 300 -55 175 -205 292
-385 300 -54 3 -101 -1 -136 -11z m279 -41 c36 -17 83 -46 104 -64 171 -150
182 -429 24 -591 -238 -245 -637 -119 -700 220 -23 123 26 265 124 357 93 89
165 116 293 111 76 -2 100 -8 155 -33z"/>
<path d="M6337 3325 c-82 -31 -141 -86 -188 -175 -33 -63 -34 -202 -2 -272 29
-63 96 -134 158 -166 44 -24 62 -27 145 -27 78 0 103 4 141 23 73 36 125 87
160 157 60 122 38 269 -54 372 -20 21 -60 52 -89 68 -46 25 -66 30 -143 32
-60 2 -102 -2 -128 -12z m242 -26 c61 -27 135 -100 163 -163 34 -76 32 -183
-5 -258 -34 -70 -110 -140 -174 -162 -208 -71 -423 78 -423 294 0 228 232 380
439 289z"/>
<path d="M6917 3402 l-37 -38 51 -49 c28 -28 105 -108 172 -178 l120 -128
-166 -167 c-92 -92 -167 -174 -167 -182 0 -19 50 -70 69 -70 9 0 91 75 183
167 l168 168 168 -168 c92 -92 174 -167 183 -167 8 0 30 16 49 35 l34 35 -174
175 -175 175 175 175 175 175 -43 42 -42 43 -175 -175 -175 -175 -173 173
c-95 94 -175 172 -178 172 -3 0 -22 -17 -42 -38z m220 -164 l173 -173 175 175
175 175 27 -28 28 -27 -175 -175 -175 -175 175 -175 175 -175 -28 -27 -27 -28
-175 175 -175 175 -175 -175 -175 -175 -27 28 -28 27 175 175 175 175 -175
175 -174 174 24 26 c13 14 26 25 29 25 3 0 83 -78 178 -172z"/>
<path d="M8066 3429 c-65 -15 -153 -69 -206 -125 -197 -208 -138 -541 121
-676 63 -32 67 -33 189 -33 l125 0 72 39 c208 110 289 351 190 559 -89 187
-290 283 -491 236z m276 -46 c264 -124 320 -469 109 -666 -96 -90 -226 -131
-344 -109 -138 26 -250 111 -308 236 -91 194 -9 433 181 531 69 36 114 45 205
42 77 -2 100 -7 157 -34z"/>
<path d="M8109 3340 c-106 -18 -211 -105 -249 -208 -30 -79 -25 -195 12 -267
34 -64 100 -128 163 -157 74 -34 199 -33 275 3 66 31 130 93 161 157 20 40 24
62 24 147 0 92 -2 104 -29 153 -71 127 -213 196 -357 172z m189 -40 c61 -27
135 -101 164 -168 15 -32 21 -69 22 -118 1 -174 -138 -314 -314 -314 -265 0
-412 317 -239 514 97 110 235 143 367 86z"/>
<path d="M2620 2545 l-33 -35 173 -176 173 -176 -84 -86 c-46 -48 -124 -129
-174 -179 l-89 -93 34 -35 c19 -19 39 -35 45 -35 5 0 87 77 180 170 l170 170
170 -170 c94 -93 175 -170 181 -170 13 0 74 62 74 76 0 5 -77 86 -170 179
l-170 170 170 170 c93 94 170 175 170 181 0 13 -62 74 -76 74 -5 0 -86 -77
-179 -170 l-170 -170 -170 170 c-94 93 -175 170 -181 170 -5 0 -25 -16 -44
-35z m395 -325 c6 0 87 76 180 170 l169 170 28 -27 29 -27 -171 -171 c-93 -93
-170 -175 -170 -180 0 -5 77 -87 170 -180 l171 -171 -29 -27 -28 -27 -169 170
c-93 94 -174 170 -180 170 -6 0 -87 -76 -180 -170 l-169 -170 -28 27 -29 27
176 176 175 175 -175 175 -175 174 27 28 27 29 171 -171 c93 -93 175 -170 180
-170z"/>
<path d="M3729 2557 c-121 -51 -190 -115 -242 -225 -30 -63 -32 -74 -32 -177
0 -103 2 -114 32 -178 42 -89 121 -168 210 -210 64 -30 75 -32 179 -32 107 0
112 1 186 38 89 44 161 116 205 205 26 53 28 66 28 177 0 110 -2 125 -27 178
-38 80 -123 167 -206 208 -61 30 -76 34 -172 36 -92 3 -112 1 -161 -20z m286
-16 c179 -63 296 -256 268 -441 -36 -233 -259 -392 -483 -346 -91 19 -158 56
-221 123 -215 227 -106 591 204 678 65 19 155 13 232 -14z"/>
<path d="M3773 2472 c-65 -23 -125 -64 -158 -108 -119 -156 -84 -375 78 -484
103 -69 222 -76 336 -19 68 34 109 76 148 152 24 45 27 63 27 142 0 101 -18
150 -79 222 -80 94 -237 136 -352 95z m242 -34 c60 -31 114 -86 146 -148 34
-65 34 -205 1 -268 -35 -66 -88 -119 -150 -149 -75 -37 -191 -40 -264 -6 -60
28 -127 94 -158 158 -36 76 -35 190 3 267 34 69 100 130 171 158 72 29 182 23
251 -12z"/>
<path d="M4342 2547 c-18 -18 -32 -37 -32 -42 0 -6 77 -87 171 -181 l172 -172
-173 -176 -173 -176 33 -35 c19 -19 39 -35 44 -35 6 0 87 77 181 170 l170 170
170 -170 c93 -93 175 -170 180 -170 6 0 26 16 45 35 l34 35 -174 175 -175 175
173 173 c94 95 172 177 172 183 0 12 -62 74 -75 74 -6 0 -87 -77 -182 -172
l-172 -172 -167 172 c-91 95 -171 172 -178 172 -7 0 -26 -15 -44 -33z m568
-162 l174 175 28 -27 29 -27 -176 -176 -175 -175 175 -175 175 -174 -27 -28
-27 -29 -171 171 c-93 93 -175 170 -180 170 -5 0 -87 -77 -180 -170 l-171
-171 -27 29 -27 28 170 169 c94 93 170 174 170 180 0 6 -76 87 -170 180 l-170
169 27 28 27 29 176 -176 175 -175 175 175z"/>
<path d="M5465 2563 c-121 -44 -205 -118 -258 -231 -58 -123 -48 -290 25 -405
40 -63 116 -130 186 -163 76 -37 222 -46 304 -19 117 39 208 120 262 234 29
62 31 73 31 176 0 103 -2 114 -32 177 -44 93 -109 160 -201 205 -68 34 -83 38
-171 40 -73 3 -108 -1 -146 -14z m260 -20 c185 -65 305 -260 275 -448 -36
-223 -253 -383 -468 -345 -178 31 -309 163 -343 344 -30 164 71 353 228 428
102 48 209 56 308 21z"/>
<path d="M5517 2480 c-97 -25 -175 -87 -219 -178 -29 -59 -33 -76 -33 -147 0
-71 4 -89 33 -147 59 -120 161 -183 297 -183 71 0 88 4 147 33 119 59 182 161
182 297 0 97 -29 170 -94 235 -77 77 -211 115 -313 90z m204 -37 c66 -29 124
-86 156 -151 24 -48 28 -70 28 -137 0 -67 -4 -89 -28 -137 -96 -195 -349 -237
-503 -84 -203 204 -50 549 236 533 36 -2 86 -13 111 -24z"/>
<path d="M6062 2547 c-18 -18 -32 -37 -32 -43 0 -5 77 -86 170 -179 l170 -170
-170 -170 c-93 -94 -170 -175 -170 -181 0 -13 62 -74 76 -74 5 0 86 77 179
170 l170 170 170 -170 c94 -93 175 -170 181 -170 5 0 25 16 44 35 l34 35 -174
175 -174 174 172 179 171 179 -40 39 -39 38 -176 -174 -175 -175 -170 173
c-94 94 -174 172 -178 172 -4 0 -21 -15 -39 -33z m568 -162 l174 175 28 -27
29 -27 -176 -176 -175 -175 175 -175 175 -174 -27 -28 -27 -29 -171 171 c-93
93 -175 170 -180 170 -5 0 -87 -77 -180 -170 l-171 -171 -27 29 -27 28 170
169 c94 93 170 174 170 180 0 6 -76 87 -170 180 l-170 169 27 28 27 29 176
-176 175 -175 175 175z"/>
<path d="M7183 2566 c-107 -35 -204 -120 -256 -225 -31 -63 -32 -71 -32 -186
0 -113 2 -124 29 -180 34 -69 110 -154 170 -189 115 -67 278 -75 399 -18 87
41 163 116 208 207 32 67 34 74 34 180 0 102 -2 115 -31 175 -45 95 -111 162
-201 207 -71 35 -83 38 -177 40 -65 2 -116 -2 -143 -11z m198 -6 c128 -24 252
-119 307 -237 24 -52 27 -70 27 -163 0 -132 -22 -194 -100 -278 -65 -70 -132
-108 -225 -128 -273 -57 -533 195 -482 467 31 165 144 290 301 331 78 20 101
21 172 8z"/>
<path d="M7235 2481 c-93 -24 -181 -95 -222 -179 -24 -50 -28 -68 -28 -147 0
-73 5 -99 23 -136 37 -75 87 -125 160 -161 59 -29 76 -33 147 -33 97 1 152 23
224 90 212 199 82 557 -208 571 -36 2 -79 0 -96 -5z m192 -32 c68 -26 139 -92
171 -161 101 -217 -77 -470 -313 -445 -109 11 -202 75 -252 172 -35 66 -42
172 -19 243 29 87 122 174 216 203 50 15 138 9 197 -12z"/>
<path d="M1760 1685 l-34 -35 177 -178 177 -177 -175 -175 -175 -175 40 -40
40 -40 175 175 175 175 175 -175 175 -174 35 34 c19 19 35 39 35 45 0 5 -77
87 -170 180 l-170 170 170 170 c93 94 170 175 170 181 0 13 -63 74 -77 74 -6
0 -86 -77 -177 -172 l-167 -172 -172 172 c-95 95 -177 172 -183 172 -5 0 -25
-16 -44 -35z m222 -155 c91 -93 169 -170 174 -170 5 0 86 78 181 172 l173 173
27 -28 28 -27 -173 -173 c-94 -95 -172 -177 -172 -182 0 -6 76 -87 170 -180
l170 -169 -27 -28 -27 -29 -176 176 -175 175 -175 -175 -174 -174 -23 21 c-13
12 -23 26 -23 32 0 6 77 87 170 181 l170 171 -171 177 -172 178 23 24 c13 14
27 25 31 25 4 0 81 -76 171 -170z"/>
<path d="M2869 1697 c-78 -33 -121 -61 -162 -106 -50 -55 -84 -117 -101 -186
-53 -202 42 -406 231 -496 129 -62 302 -49 417 31 276 189 249 594 -49 741
-64 31 -78 34 -175 37 -92 2 -112 0 -161 -21z m294 -17 c116 -44 209 -144 247
-267 24 -78 25 -138 5 -218 -32 -122 -107 -212 -222 -267 -280 -133 -597 78
-581 387 6 108 35 180 103 253 120 130 288 172 448 112z"/>
<path d="M2925 1617 c-63 -21 -98 -42 -142 -87 -64 -64 -87 -120 -91 -222 -4
-76 -1 -93 23 -146 54 -121 171 -196 305 -197 66 0 85 5 143 33 115 57 178
152 185 281 3 61 0 87 -18 133 -27 74 -96 150 -166 184 -66 32 -175 42 -239
21z m228 -36 c66 -32 133 -103 157 -168 24 -66 26 -161 4 -227 -22 -64 -100
-147 -166 -177 -77 -34 -183 -33 -259 2 -139 65 -212 214 -175 358 27 106 92
181 193 222 65 26 180 22 246 -10z"/>
<path d="M3482 1687 c-18 -18 -32 -37 -32 -42 0 -6 78 -87 172 -182 l173 -173
-175 -175 -174 -175 34 -35 c19 -19 39 -35 45 -35 5 0 87 77 180 170 l170 170
170 -170 c94 -93 175 -170 181 -170 13 0 74 62 74 76 0 5 -77 86 -170 179
l-170 170 170 170 c93 94 170 175 170 181 0 12 -62 74 -75 74 -6 0 -85 -77
-177 -172 l-166 -173 -174 173 c-95 94 -178 172 -184 172 -5 0 -24 -15 -42
-33z m568 -162 l174 175 28 -27 29 -27 -171 -171 c-93 -93 -170 -175 -170
-180 0 -5 77 -87 170 -180 l171 -171 -29 -27 -28 -27 -169 170 c-93 94 -174
170 -180 170 -6 0 -87 -76 -180 -170 l-169 -170 -28 27 -29 27 176 176 175
175 -175 175 -175 174 27 28 27 29 176 -176 175 -175 175 175z"/>
<path d="M4605 1702 c-120 -41 -205 -117 -258 -230 -30 -63 -32 -74 -32 -177
0 -102 2 -115 31 -175 45 -95 111 -162 201 -207 67 -33 86 -38 167 -41 74 -3
103 0 155 18 114 38 204 118 258 229 26 52 28 65 28 176 0 109 -2 125 -27 178
-31 66 -112 156 -172 191 -96 56 -250 73 -351 38z m260 -19 c287 -93 376 -457
163 -673 -159 -162 -408 -165 -573 -9 -164 155 -170 409 -14 574 112 119 269
159 424 108z"/>
<path d="M4657 1620 c-97 -25 -176 -90 -223 -185 -24 -50 -28 -71 -28 -140 0
-69 4 -91 27 -137 36 -72 98 -134 167 -167 45 -21 70 -25 135 -25 134 0 232
58 296 176 31 58 34 70 34 153 0 83 -3 95 -34 153 -40 74 -85 116 -159 150
-60 27 -154 37 -215 22z m189 -31 c70 -26 137 -86 172 -154 23 -43 27 -62 27
-140 0 -78 -4 -97 -27 -141 -15 -28 -48 -70 -74 -92 -195 -172 -498 -51 -521
208 -21 227 208 399 423 319z"/>
<path d="M5202 1687 c-18 -18 -32 -37 -32 -43 0 -5 77 -86 170 -179 l170 -170
-170 -170 c-93 -94 -170 -175 -170 -181 0 -13 62 -74 76 -74 5 0 86 77 179
170 l170 170 170 -170 c94 -93 175 -170 181 -170 13 0 74 62 74 76 0 5 -77 86
-170 179 l-170 170 170 170 c93 94 170 175 170 181 0 13 -62 74 -76 74 -5 0
-86 -77 -179 -170 l-170 -170 -170 170 c-94 93 -175 170 -181 170 -5 0 -24
-15 -42 -33z m393 -327 c6 0 87 76 180 170 l169 170 28 -27 29 -27 -176 -176
-175 -175 175 -175 175 -174 -27 -28 -27 -29 -171 171 c-93 93 -175 170 -180
170 -5 0 -87 -77 -180 -170 l-171 -171 -27 29 -27 28 170 169 c94 93 170 174
170 180 0 6 -76 87 -170 180 l-170 169 27 28 27 29 171 -171 c93 -93 175 -170
180 -170z"/>
<path d="M6323 1706 c-104 -34 -207 -126 -259 -231 -27 -56 -29 -68 -29 -175
0 -109 2 -119 32 -182 44 -94 109 -160 202 -206 73 -36 78 -37 185 -37 103 0
115 2 176 31 95 45 162 111 207 202 37 74 38 79 38 186 0 104 -2 115 -32 179
-43 90 -116 166 -201 208 -61 31 -76 34 -172 36 -69 2 -120 -2 -147 -11z m209
-7 c223 -47 369 -263 324 -479 -19 -91 -56 -158 -123 -221 -92 -87 -209 -124
-337 -107 -171 23 -314 164 -347 342 -36 197 100 406 299 457 80 21 114 23
184 8z"/>
<path d="M6374 1621 c-50 -13 -133 -63 -165 -98 -16 -19 -41 -57 -56 -86 -23
-44 -27 -64 -27 -137 -1 -71 4 -94 26 -141 33 -73 95 -134 167 -167 82 -38
195 -37 273 1 72 35 130 94 165 165 55 112 32 265 -55 363 -52 59 -140 100
-225 104 -40 3 -86 1 -103 -4z m222 -44 c60 -30 118 -92 147 -156 30 -65 30
-187 0 -253 -27 -60 -101 -134 -161 -161 -73 -34 -189 -31 -264 6 -258 127
-225 497 52 588 50 17 172 4 226 -24z"/>
<path d="M8391 1579 c-118 -21 -250 -91 -339 -181 -234 -234 -253 -596 -46
-858 182 -229 515 -304 779 -174 378 186 481 669 212 995 -70 85 -200 168
-317 203 -68 20 -217 28 -289 15z m263 -39 c263 -67 446 -287 463 -557 8 -120
-8 -196 -62 -309 -61 -127 -152 -218 -279 -279 -113 -54 -189 -70 -309 -62
-175 11 -325 87 -437 223 -155 188 -182 459 -68 677 43 82 173 212 255 255
133 70 293 89 437 52z"/>
<path d="M8364 1426 c-137 -44 -250 -143 -312 -273 -37 -78 -37 -79 -37 -208
0 -129 0 -130 37 -208 87 -182 252 -289 448 -290 143 0 245 40 347 136 108
101 155 212 155 362 1 200 -104 365 -289 453 -74 35 -83 37 -193 39 -74 2
-129 -2 -156 -11z m245 -21 c239 -57 400 -290 363 -528 -31 -204 -196 -368
-401 -400 -304 -47 -584 236 -533 537 18 104 61 186 135 260 122 123 275 169
436 131z"/>
<path d="M905 830 l-39 -40 174 -175 175 -175 -80 -82 c-44 -46 -122 -126
-173 -178 l-92 -96 40 -39 40 -39 175 174 175 175 175 -175 175 -175 42 43 43
42 -175 175 -175 175 175 175 175 175 -43 42 -42 43 -175 -175 -175 -175 -173
173 c-95 94 -175 172 -178 172 -3 0 -23 -18 -44 -40z m222 -162 l173 -173 175
175 175 175 27 -28 28 -27 -175 -175 -175 -175 175 -175 175 -175 -28 -27 -27
-28 -175 175 -175 175 -175 -175 -175 -175 -27 28 -28 27 175 175 175 175
-175 175 -174 174 24 26 c13 14 26 25 29 25 3 0 83 -78 178 -172z"/>
<path d="M2070 859 c-114 -22 -241 -122 -294 -230 -126 -259 32 -563 318 -612
280 -48 537 208 489 487 -42 248 -267 403 -513 355z m213 -29 c180 -56 299
-232 284 -422 -13 -169 -124 -308 -286 -359 -326 -101 -624 222 -501 544 24
63 106 161 167 198 94 58 224 73 336 39z"/>
<path d="M2050 754 c-145 -52 -227 -179 -218 -336 6 -123 73 -224 183 -279 42
-20 64 -24 145 -24 111 0 167 21 235 90 69 68 90 124 90 235 0 81 -4 103 -24
145 -32 63 -93 124 -156 155 -64 32 -187 38 -255 14z m243 -32 c190 -83 241
-335 101 -491 -79 -88 -194 -125 -302 -97 -108 27 -173 82 -220 185 -65 141
-3 318 137 395 95 51 181 54 284 8z"/>
<path d="M5495 856 c-288 -70 -417 -408 -252 -658 97 -146 286 -218 457 -174
128 33 225 114 284 236 29 61 31 72 31 180 0 109 -2 119 -32 182 -86 182 -293
281 -488 234z m269 -44 c168 -79 270 -263 238 -432 -59 -321 -420 -458 -669
-254 -167 137 -193 394 -58 566 117 148 321 198 489 120z"/>
<path d="M5474 750 c-75 -30 -137 -89 -176 -168 -28 -57 -33 -76 -33 -142 1
-126 65 -234 177 -296 49 -27 61 -29 153 -29 89 0 106 3 150 27 62 32 129 103
158 166 31 66 31 198 0 264 -29 63 -97 134 -158 166 -70 36 -197 41 -271 12z
m253 -25 c241 -108 244 -449 6 -567 -124 -61 -260 -38 -356 60 -66 67 -92 129
-91 222 0 96 28 162 95 225 100 94 223 115 346 60z"/>
<path d="M2620 825 l-34 -35 174 -175 174 -174 -24 -28 c-13 -15 -91 -96 -172
-178 l-148 -151 40 -39 40 -39 175 174 175 175 175 -175 175 -174 35 34 c19
19 35 39 35 45 0 5 -77 87 -170 180 l-170 170 170 170 c93 94 170 175 170 181
0 13 -62 74 -76 74 -5 0 -86 -77 -179 -170 l-170 -170 -170 170 c-94 93 -175
170 -181 170 -5 0 -25 -16 -44 -35z m227 -157 l173 -173 175 175 175 175 27
-28 28 -27 -175 -175 -174 -174 24 -28 c13 -15 91 -96 172 -178 l149 -151 -29
-27 -28 -27 -174 176 -174 175 -176 -176 -176 -176 -22 24 c-12 13 -22 27 -22
33 0 5 78 86 172 181 l173 173 -175 175 -174 174 24 26 c13 14 26 25 29 25 3
0 83 -78 178 -172z"/>
<path d="M3729 842 c-107 -43 -192 -125 -243 -231 -29 -61 -31 -74 -31 -171 0
-100 2 -108 36 -180 47 -97 112 -162 209 -209 72 -34 80 -36 181 -36 101 0
108 1 181 38 130 64 218 181 239 321 28 180 -66 362 -232 447 -60 31 -72 33
-179 36 -94 3 -124 0 -161 -15z m247 -6 c221 -59 355 -281 300 -496 -31 -121
-110 -216 -225 -273 -61 -30 -73 -32 -171 -32 -97 0 -110 2 -172 32 -88 41
-160 113 -201 201 -30 62 -32 75 -32 172 0 98 2 109 32 170 89 181 284 275
469 226z"/>
<path d="M3770 754 c-148 -54 -227 -176 -218 -337 5 -95 36 -165 99 -222 73
-66 113 -80 224 -80 86 0 107 3 150 24 63 32 124 92 155 156 21 42 25 64 25
145 0 80 -4 102 -24 140 -32 62 -96 127 -156 158 -64 33 -187 41 -255 16z
m223 -24 c70 -26 126 -75 162 -141 23 -44 30 -69 33 -137 4 -77 2 -87 -27
-147 -43 -87 -104 -139 -193 -166 -116 -36 -222 -9 -310 78 -87 85 -115 195
-79 311 26 87 79 149 163 191 76 38 167 42 251 11z"/>
<path d="M4340 825 l-34 -35 174 -175 175 -175 -175 -175 -175 -175 43 -42 42
-43 175 175 175 175 175 -175 175 -174 35 34 c19 19 35 39 35 44 0 6 -76 87
-169 181 l-170 170 171 178 171 178 -33 34 c-19 19 -39 35 -45 35 -5 0 -87
-77 -180 -170 l-170 -170 -170 170 c-94 93 -175 170 -181 170 -5 0 -25 -16
-44 -35z m222 -155 c90 -93 167 -170 173 -170 5 0 87 78 182 172 l173 173 27
-28 28 -27 -173 -173 c-94 -95 -172 -177 -172 -182 0 -6 76 -87 170 -180 l170
-169 -27 -28 -27 -29 -176 176 -175 175 -175 -175 -174 -175 -28 27 -29 27
175 176 176 175 -172 178 -171 178 23 24 c13 14 27 25 31 25 4 0 81 -76 171
-170z"/>
</g>
</svg>
